<?xml version="1.0" encoding="UTF-8" standalone="no"?>
<svg
  xmlns="http://www.w3.org/2000/svg"
  xmlns:inkscape="http://www.inkscape.org/namespaces/inkscape"
  width="297mm"
  height="210mm"
  viewBox="0 0 297 210"
  version="1.1">
  <g
    inkscape:groupmode="layer"
    inkscape:label="sheet-guides"
    fill="none"
    stroke="#000000"
    stroke-width="0.3"
    stroke-linecap="round"
    stroke-linejoin="round">

    <!-- A4 max plotter envelope, corners only. -->
    <path d="M 0,0 H 8 M 0,0 V 8"/>
    <path d="M 297,0 H 289 M 297,0 V 8"/>
    <path d="M 0,210 H 8 M 0,210 V 202"/>
    <path d="M 297,210 H 289 M 297,210 V 202"/>

    <!-- A5 landscape, centered: 210 x 148 mm. -->
    <rect x="43.5" y="31" width="210" height="148"/>
    <path d="M 43.5,31 H 49.5 M 43.5,31 V 37"/>
    <path d="M 253.5,31 H 247.5 M 253.5,31 V 37"/>
    <path d="M 43.5,179 H 49.5 M 43.5,179 V 173"/>
    <path d="M 253.5,179 H 247.5 M 253.5,179 V 173"/>

    <!-- A6 landscape, centered: 148 x 105 mm. -->
    <rect x="74.5" y="52.5" width="148" height="105"/>
    <path d="M 74.5,52.5 H 80.5 M 74.5,52.5 V 58.5"/>
    <path d="M 222.5,52.5 H 216.5 M 222.5,52.5 V 58.5"/>
    <path d="M 74.5,157.5 H 80.5 M 74.5,157.5 V 151.5"/>
    <path d="M 222.5,157.5 H 216.5 M 222.5,157.5 V 151.5"/>
  </g>
</svg>
